<mxfile>
    <diagram id="hu_-Z-u_VwQK8YxnTdvE" name="Page-1">
        <mxGraphModel dx="833" dy="1717" grid="1" gridSize="10" guides="1" tooltips="1" connect="1" arrows="1" fold="1" page="1" pageScale="1" pageWidth="850" pageHeight="1100" math="0" shadow="0">
            <root>
                <mxCell id="0"/>
                <mxCell id="1" parent="0"/>
                <mxCell id="PniOE2dAJQZF6TFlqfsl-1" value="" style="rounded=1;whiteSpace=wrap;html=1;arcSize=8;fillColor=none;" parent="1" vertex="1">
                    <mxGeometry x="240" y="-900" width="310" height="960" as="geometry"/>
                </mxCell>
                <mxCell id="PniOE2dAJQZF6TFlqfsl-18" style="edgeStyle=none;rounded=0;orthogonalLoop=1;jettySize=auto;html=1;entryX=0;entryY=0.5;entryDx=0;entryDy=0;endArrow=none;endFill=0;" parent="1" source="PniOE2dAJQZF6TFlqfsl-2" target="PniOE2dAJQZF6TFlqfsl-15" edge="1">
                    <mxGeometry relative="1" as="geometry"/>
                </mxCell>
                <mxCell id="PniOE2dAJQZF6TFlqfsl-19" style="edgeStyle=none;rounded=0;orthogonalLoop=1;jettySize=auto;html=1;entryX=0;entryY=0.5;entryDx=0;entryDy=0;endArrow=none;endFill=0;" parent="1" source="PniOE2dAJQZF6TFlqfsl-2" target="PniOE2dAJQZF6TFlqfsl-16" edge="1">
                    <mxGeometry relative="1" as="geometry"/>
                </mxCell>
                <mxCell id="PniOE2dAJQZF6TFlqfsl-20" style="edgeStyle=none;rounded=0;orthogonalLoop=1;jettySize=auto;html=1;entryX=0;entryY=0.5;entryDx=0;entryDy=0;endArrow=none;endFill=0;" parent="1" source="PniOE2dAJQZF6TFlqfsl-2" target="PniOE2dAJQZF6TFlqfsl-17" edge="1">
                    <mxGeometry relative="1" as="geometry"/>
                </mxCell>
                <mxCell id="YzWVm9P3VKeGNoiAu7Gn-5" style="rounded=0;orthogonalLoop=1;jettySize=auto;html=1;endArrow=none;endFill=0;" parent="1" source="PniOE2dAJQZF6TFlqfsl-2" target="YzWVm9P3VKeGNoiAu7Gn-4" edge="1">
                    <mxGeometry relative="1" as="geometry"/>
                </mxCell>
                <mxCell id="YzWVm9P3VKeGNoiAu7Gn-20" style="edgeStyle=none;rounded=0;orthogonalLoop=1;jettySize=auto;html=1;entryX=0;entryY=0.5;entryDx=0;entryDy=0;endArrow=none;endFill=0;" parent="1" source="PniOE2dAJQZF6TFlqfsl-2" target="YzWVm9P3VKeGNoiAu7Gn-16" edge="1">
                    <mxGeometry relative="1" as="geometry"/>
                </mxCell>
                <mxCell id="YzWVm9P3VKeGNoiAu7Gn-33" style="edgeStyle=none;rounded=0;orthogonalLoop=1;jettySize=auto;html=1;entryX=0;entryY=0.5;entryDx=0;entryDy=0;endArrow=none;endFill=0;" parent="1" source="PniOE2dAJQZF6TFlqfsl-2" target="YzWVm9P3VKeGNoiAu7Gn-28" edge="1">
                    <mxGeometry relative="1" as="geometry"/>
                </mxCell>
                <mxCell id="PniOE2dAJQZF6TFlqfsl-2" value="Admin" style="shape=umlActor;verticalLabelPosition=bottom;verticalAlign=top;html=1;outlineConnect=0;fillColor=none;" parent="1" vertex="1">
                    <mxGeometry x="97.5" y="-240" width="30" height="60" as="geometry"/>
                </mxCell>
                <mxCell id="PniOE2dAJQZF6TFlqfsl-21" style="edgeStyle=none;rounded=0;orthogonalLoop=1;jettySize=auto;html=1;entryX=0;entryY=0.5;entryDx=0;entryDy=0;endArrow=none;endFill=0;" parent="1" source="PniOE2dAJQZF6TFlqfsl-3" target="PniOE2dAJQZF6TFlqfsl-6" edge="1">
                    <mxGeometry relative="1" as="geometry"/>
                </mxCell>
                <mxCell id="PniOE2dAJQZF6TFlqfsl-22" style="edgeStyle=none;rounded=0;orthogonalLoop=1;jettySize=auto;html=1;entryX=0;entryY=0.5;entryDx=0;entryDy=0;endArrow=none;endFill=0;" parent="1" source="PniOE2dAJQZF6TFlqfsl-3" target="PniOE2dAJQZF6TFlqfsl-4" edge="1">
                    <mxGeometry relative="1" as="geometry"/>
                </mxCell>
                <mxCell id="PniOE2dAJQZF6TFlqfsl-25" style="edgeStyle=none;rounded=0;orthogonalLoop=1;jettySize=auto;html=1;entryX=0;entryY=0.5;entryDx=0;entryDy=0;endArrow=none;endFill=0;" parent="1" source="PniOE2dAJQZF6TFlqfsl-3" target="PniOE2dAJQZF6TFlqfsl-14" edge="1">
                    <mxGeometry relative="1" as="geometry"/>
                </mxCell>
                <mxCell id="YzWVm9P3VKeGNoiAu7Gn-12" style="edgeStyle=none;rounded=0;orthogonalLoop=1;jettySize=auto;html=1;endArrow=none;endFill=0;" parent="1" source="PniOE2dAJQZF6TFlqfsl-3" target="YzWVm9P3VKeGNoiAu7Gn-11" edge="1">
                    <mxGeometry relative="1" as="geometry"/>
                </mxCell>
                <mxCell id="YzWVm9P3VKeGNoiAu7Gn-21" style="edgeStyle=none;rounded=0;orthogonalLoop=1;jettySize=auto;html=1;entryX=0;entryY=0.5;entryDx=0;entryDy=0;endArrow=none;endFill=0;" parent="1" source="PniOE2dAJQZF6TFlqfsl-3" target="YzWVm9P3VKeGNoiAu7Gn-14" edge="1">
                    <mxGeometry relative="1" as="geometry"/>
                </mxCell>
                <mxCell id="YzWVm9P3VKeGNoiAu7Gn-22" style="edgeStyle=none;rounded=0;orthogonalLoop=1;jettySize=auto;html=1;entryX=0;entryY=0.5;entryDx=0;entryDy=0;endArrow=none;endFill=0;" parent="1" source="PniOE2dAJQZF6TFlqfsl-3" target="YzWVm9P3VKeGNoiAu7Gn-13" edge="1">
                    <mxGeometry relative="1" as="geometry"/>
                </mxCell>
                <mxCell id="YzWVm9P3VKeGNoiAu7Gn-23" style="edgeStyle=none;rounded=0;orthogonalLoop=1;jettySize=auto;html=1;entryX=0;entryY=0.5;entryDx=0;entryDy=0;endArrow=none;endFill=0;" parent="1" source="PniOE2dAJQZF6TFlqfsl-3" target="YzWVm9P3VKeGNoiAu7Gn-2" edge="1">
                    <mxGeometry relative="1" as="geometry"/>
                </mxCell>
                <mxCell id="YzWVm9P3VKeGNoiAu7Gn-46" style="edgeStyle=none;rounded=0;orthogonalLoop=1;jettySize=auto;html=1;entryX=0;entryY=0.5;entryDx=0;entryDy=0;endArrow=none;endFill=0;" parent="1" source="PniOE2dAJQZF6TFlqfsl-3" target="YzWVm9P3VKeGNoiAu7Gn-45" edge="1">
                    <mxGeometry relative="1" as="geometry"/>
                </mxCell>
                <mxCell id="PniOE2dAJQZF6TFlqfsl-3" value="Utilizator" style="shape=umlActor;verticalLabelPosition=bottom;verticalAlign=top;html=1;outlineConnect=0;fillColor=none;" parent="1" vertex="1">
                    <mxGeometry x="97.5" y="-690" width="30" height="60" as="geometry"/>
                </mxCell>
                <mxCell id="PniOE2dAJQZF6TFlqfsl-4" value="Logout" style="ellipse;whiteSpace=wrap;html=1;fillColor=none;" parent="1" vertex="1">
                    <mxGeometry x="260" y="-815" width="100" height="50" as="geometry"/>
                </mxCell>
                <mxCell id="PniOE2dAJQZF6TFlqfsl-6" value="Login" style="ellipse;whiteSpace=wrap;html=1;fillColor=none;" parent="1" vertex="1">
                    <mxGeometry x="260" y="-870" width="100" height="50" as="geometry"/>
                </mxCell>
                <mxCell id="PniOE2dAJQZF6TFlqfsl-14" value="Vizualizare&amp;nbsp; categorii de anunturi" style="ellipse;whiteSpace=wrap;html=1;fillColor=none;" parent="1" vertex="1">
                    <mxGeometry x="260" y="-700" width="100" height="50" as="geometry"/>
                </mxCell>
                <mxCell id="YzWVm9P3VKeGNoiAu7Gn-36" style="edgeStyle=none;rounded=0;orthogonalLoop=1;jettySize=auto;html=1;endArrow=none;endFill=0;" parent="1" source="PniOE2dAJQZF6TFlqfsl-15" target="YzWVm9P3VKeGNoiAu7Gn-35" edge="1">
                    <mxGeometry relative="1" as="geometry"/>
                </mxCell>
                <mxCell id="PniOE2dAJQZF6TFlqfsl-15" value="Creeaza categorie noua" style="ellipse;whiteSpace=wrap;html=1;fillColor=none;" parent="1" vertex="1">
                    <mxGeometry x="257.5" y="-280" width="100" height="50" as="geometry"/>
                </mxCell>
                <mxCell id="YzWVm9P3VKeGNoiAu7Gn-38" style="edgeStyle=none;rounded=0;orthogonalLoop=1;jettySize=auto;html=1;endArrow=none;endFill=0;" parent="1" source="PniOE2dAJQZF6TFlqfsl-16" target="YzWVm9P3VKeGNoiAu7Gn-37" edge="1">
                    <mxGeometry relative="1" as="geometry"/>
                </mxCell>
                <mxCell id="PniOE2dAJQZF6TFlqfsl-16" value="Vizualizare utilizatori conectati" style="ellipse;whiteSpace=wrap;html=1;fillColor=none;" parent="1" vertex="1">
                    <mxGeometry x="252.5" y="-220" width="110" height="60" as="geometry"/>
                </mxCell>
                <mxCell id="YzWVm9P3VKeGNoiAu7Gn-32" style="edgeStyle=none;rounded=0;orthogonalLoop=1;jettySize=auto;html=1;entryX=0;entryY=0.5;entryDx=0;entryDy=0;entryPerimeter=0;endArrow=none;endFill=0;" parent="1" source="PniOE2dAJQZF6TFlqfsl-17" target="YzWVm9P3VKeGNoiAu7Gn-31" edge="1">
                    <mxGeometry relative="1" as="geometry"/>
                </mxCell>
                <mxCell id="PniOE2dAJQZF6TFlqfsl-17" value="Adaugare utilizatori" style="ellipse;whiteSpace=wrap;html=1;fillColor=none;" parent="1" vertex="1">
                    <mxGeometry x="255" y="-90" width="100" height="50" as="geometry"/>
                </mxCell>
                <mxCell id="YzWVm9P3VKeGNoiAu7Gn-1" value="&lt;i&gt;ls ./categorie&amp;nbsp;&lt;/i&gt;" style="ellipse;whiteSpace=wrap;html=1;fillColor=none;dashed=1;" parent="1" vertex="1">
                    <mxGeometry x="390" y="-640" width="100" height="50" as="geometry"/>
                </mxCell>
                <mxCell id="YzWVm9P3VKeGNoiAu7Gn-30" style="edgeStyle=none;rounded=0;orthogonalLoop=1;jettySize=auto;html=1;endArrow=none;endFill=0;" parent="1" source="YzWVm9P3VKeGNoiAu7Gn-2" target="YzWVm9P3VKeGNoiAu7Gn-29" edge="1">
                    <mxGeometry relative="1" as="geometry"/>
                </mxCell>
                <mxCell id="YzWVm9P3VKeGNoiAu7Gn-2" value="sterge anunt propriu" style="ellipse;whiteSpace=wrap;html=1;fillColor=none;" parent="1" vertex="1">
                    <mxGeometry x="255" y="-450" width="100" height="50" as="geometry"/>
                </mxCell>
                <mxCell id="YzWVm9P3VKeGNoiAu7Gn-7" style="edgeStyle=none;rounded=0;orthogonalLoop=1;jettySize=auto;html=1;endArrow=none;endFill=0;" parent="1" source="YzWVm9P3VKeGNoiAu7Gn-4" target="YzWVm9P3VKeGNoiAu7Gn-6" edge="1">
                    <mxGeometry relative="1" as="geometry"/>
                </mxCell>
                <mxCell id="YzWVm9P3VKeGNoiAu7Gn-4" value="Login" style="ellipse;whiteSpace=wrap;html=1;fillColor=none;" parent="1" vertex="1">
                    <mxGeometry x="257.5" y="-350" width="100" height="50" as="geometry"/>
                </mxCell>
                <mxCell id="YzWVm9P3VKeGNoiAu7Gn-6" value="&lt;font style=&quot;font-size: 11px&quot;&gt;persistenta datelor de login&lt;/font&gt;" style="shape=note;whiteSpace=wrap;html=1;backgroundOutline=1;darkOpacity=0.05;size=11;align=left;" parent="1" vertex="1">
                    <mxGeometry x="402.5" y="-350" width="70" height="50" as="geometry"/>
                </mxCell>
                <mxCell id="YzWVm9P3VKeGNoiAu7Gn-8" value="&lt;font style=&quot;font-size: 11px&quot;&gt;/dir_main&lt;br&gt;&amp;nbsp; &amp;nbsp; - dir_a - &amp;gt; &lt;i&gt;txt si imagini&lt;/i&gt;&lt;br&gt;&amp;nbsp; &amp;nbsp; &amp;nbsp; &amp;nbsp; &amp;nbsp; &amp;nbsp; &amp;nbsp; &amp;nbsp; &amp;nbsp;-&amp;gt; nume_anunt_username.&lt;b&gt;txt&lt;br&gt;&lt;/b&gt;&amp;nbsp; &amp;nbsp; &amp;nbsp; &amp;nbsp; &amp;nbsp; &amp;nbsp; &amp;nbsp; &amp;nbsp; &amp;nbsp;-&amp;gt; nume_anunt_username.&lt;b&gt;jpg&lt;/b&gt;&lt;br&gt;&amp;nbsp; &amp;nbsp; - dir_b&lt;br&gt;&amp;nbsp; &amp;nbsp; - dir_c&lt;br&gt;&amp;nbsp; &amp;nbsp; - dir_d&lt;br&gt;&lt;/font&gt;" style="shape=note;whiteSpace=wrap;html=1;backgroundOutline=1;darkOpacity=0.05;size=0;align=left;" parent="1" vertex="1">
                    <mxGeometry x="585" y="-1005" width="255" height="135" as="geometry"/>
                </mxCell>
                <mxCell id="YzWVm9P3VKeGNoiAu7Gn-11" value="vizualizare meniu comenzi" style="ellipse;whiteSpace=wrap;html=1;fillColor=none;" parent="1" vertex="1">
                    <mxGeometry x="260" y="-760" width="100" height="50" as="geometry"/>
                </mxCell>
                <mxCell id="YzWVm9P3VKeGNoiAu7Gn-27" style="edgeStyle=none;rounded=0;orthogonalLoop=1;jettySize=auto;html=1;endArrow=none;endFill=0;" parent="1" source="YzWVm9P3VKeGNoiAu7Gn-13" target="YzWVm9P3VKeGNoiAu7Gn-26" edge="1">
                    <mxGeometry relative="1" as="geometry"/>
                </mxCell>
                <mxCell id="YzWVm9P3VKeGNoiAu7Gn-13" value="Adauga anunt&amp;nbsp;" style="ellipse;whiteSpace=wrap;html=1;fillColor=none;" parent="1" vertex="1">
                    <mxGeometry x="260" y="-510" width="100" height="50" as="geometry"/>
                </mxCell>
                <mxCell id="YzWVm9P3VKeGNoiAu7Gn-14" value="vizualizeaza&lt;b&gt; &lt;/b&gt;anunturi din categorie" style="ellipse;whiteSpace=wrap;html=1;fillColor=none;" parent="1" vertex="1">
                    <mxGeometry x="260" y="-640" width="100" height="50" as="geometry"/>
                </mxCell>
                <mxCell id="YzWVm9P3VKeGNoiAu7Gn-19" style="edgeStyle=none;rounded=0;orthogonalLoop=1;jettySize=auto;html=1;endArrow=none;endFill=0;" parent="1" source="YzWVm9P3VKeGNoiAu7Gn-16" target="YzWVm9P3VKeGNoiAu7Gn-18" edge="1">
                    <mxGeometry relative="1" as="geometry"/>
                </mxCell>
                <mxCell id="YzWVm9P3VKeGNoiAu7Gn-16" value="ban client" style="ellipse;whiteSpace=wrap;html=1;fillColor=none;" parent="1" vertex="1">
                    <mxGeometry x="257.5" y="-150" width="100" height="50" as="geometry"/>
                </mxCell>
                <mxCell id="YzWVm9P3VKeGNoiAu7Gn-18" value="&lt;font style=&quot;font-size: 11px&quot;&gt;termina conn. client (in C) si stregerea din lista clientilor (exec catre .py) si stregerea anunturilor&amp;nbsp;&lt;/font&gt;" style="shape=note;whiteSpace=wrap;html=1;backgroundOutline=1;darkOpacity=0.05;size=11;align=left;" parent="1" vertex="1">
                    <mxGeometry x="402.5" y="-165" width="120" height="80" as="geometry"/>
                </mxCell>
                <mxCell id="YzWVm9P3VKeGNoiAu7Gn-25" value="&lt;font style=&quot;font-size: 11px&quot;&gt;Site de anunturi&lt;br&gt;&lt;br&gt;-Administrator&lt;br&gt;-Vanzator&lt;br&gt;&lt;br&gt;&lt;/font&gt;" style="shape=note;whiteSpace=wrap;html=1;backgroundOutline=1;darkOpacity=0.05;size=0;align=left;" parent="1" vertex="1">
                    <mxGeometry x="250" y="-1060" width="110" height="140" as="geometry"/>
                </mxCell>
                <mxCell id="YzWVm9P3VKeGNoiAu7Gn-26" value="&lt;font style=&quot;font-size: 11px&quot;&gt;imagine si descriere text&lt;/font&gt;" style="shape=note;whiteSpace=wrap;html=1;backgroundOutline=1;darkOpacity=0.05;size=11;align=left;" parent="1" vertex="1">
                    <mxGeometry x="405" y="-510" width="70" height="50" as="geometry"/>
                </mxCell>
                <mxCell id="YzWVm9P3VKeGNoiAu7Gn-40" style="edgeStyle=none;rounded=0;orthogonalLoop=1;jettySize=auto;html=1;entryX=0;entryY=0.5;entryDx=0;entryDy=0;entryPerimeter=0;endArrow=none;endFill=0;" parent="1" source="YzWVm9P3VKeGNoiAu7Gn-28" target="YzWVm9P3VKeGNoiAu7Gn-39" edge="1">
                    <mxGeometry relative="1" as="geometry"/>
                </mxCell>
                <mxCell id="YzWVm9P3VKeGNoiAu7Gn-28" value="sterge anunt" style="ellipse;whiteSpace=wrap;html=1;fillColor=none;" parent="1" vertex="1">
                    <mxGeometry x="252.5" y="-30" width="100" height="50" as="geometry"/>
                </mxCell>
                <mxCell id="YzWVm9P3VKeGNoiAu7Gn-29" value="&lt;span style=&quot;font-size: 11px&quot;&gt;? py script&lt;/span&gt;" style="shape=note;whiteSpace=wrap;html=1;backgroundOutline=1;darkOpacity=0.05;size=11;align=left;" parent="1" vertex="1">
                    <mxGeometry x="405" y="-450" width="70" height="50" as="geometry"/>
                </mxCell>
                <mxCell id="YzWVm9P3VKeGNoiAu7Gn-31" value="&lt;font style=&quot;font-size: 11px&quot;&gt;persistenta datelor de login&lt;/font&gt;" style="shape=note;whiteSpace=wrap;html=1;backgroundOutline=1;darkOpacity=0.05;size=11;align=left;" parent="1" vertex="1">
                    <mxGeometry x="402.5" y="-80" width="70" height="50" as="geometry"/>
                </mxCell>
                <mxCell id="YzWVm9P3VKeGNoiAu7Gn-35" value="&lt;font style=&quot;font-size: 11px&quot;&gt;exec&lt;/font&gt;" style="shape=note;whiteSpace=wrap;html=1;backgroundOutline=1;darkOpacity=0.05;size=11;align=left;dashed=1;" parent="1" vertex="1">
                    <mxGeometry x="402.5" y="-280" width="70" height="50" as="geometry"/>
                </mxCell>
                <mxCell id="YzWVm9P3VKeGNoiAu7Gn-37" value="&lt;font style=&quot;font-size: 11px&quot;&gt;memorie ram&lt;/font&gt;" style="shape=note;whiteSpace=wrap;html=1;backgroundOutline=1;darkOpacity=0.05;size=11;align=left;dashed=1;" parent="1" vertex="1">
                    <mxGeometry x="402.5" y="-220" width="70" height="50" as="geometry"/>
                </mxCell>
                <mxCell id="YzWVm9P3VKeGNoiAu7Gn-39" value="&lt;font style=&quot;font-size: 11px&quot;&gt;?&lt;/font&gt;" style="shape=note;whiteSpace=wrap;html=1;backgroundOutline=1;darkOpacity=0.05;size=11;align=left;dashed=1;" parent="1" vertex="1">
                    <mxGeometry x="402.5" y="-20" width="70" height="50" as="geometry"/>
                </mxCell>
                <mxCell id="YzWVm9P3VKeGNoiAu7Gn-41" value="&lt;i&gt;ls ./&lt;/i&gt;" style="ellipse;whiteSpace=wrap;html=1;fillColor=none;dashed=1;" parent="1" vertex="1">
                    <mxGeometry x="390" y="-700" width="100" height="50" as="geometry"/>
                </mxCell>
                <mxCell id="YzWVm9P3VKeGNoiAu7Gn-45" value="vizualizare anunt" style="ellipse;whiteSpace=wrap;html=1;fillColor=none;" parent="1" vertex="1">
                    <mxGeometry x="260" y="-575" width="100" height="50" as="geometry"/>
                </mxCell>
                <mxCell id="YzWVm9P3VKeGNoiAu7Gn-47" value="&lt;i&gt;primeste notificare anunt nou&lt;/i&gt;" style="ellipse;whiteSpace=wrap;html=1;fillColor=none;dashed=1;dashPattern=1 2;" parent="1" vertex="1">
                    <mxGeometry x="412.5" y="-865" width="100" height="50" as="geometry"/>
                </mxCell>
                <mxCell id="YzWVm9P3VKeGNoiAu7Gn-50" value="&lt;font style=&quot;font-size: 11px&quot;&gt;Login &quot;1 nume parola&quot;&lt;br&gt;&lt;br&gt;&lt;span style=&quot;font-size: 12px ; text-align: center&quot;&gt;vizualizare meniu comenzi&lt;br&gt;&lt;br&gt;&lt;/span&gt;&lt;span style=&quot;font-size: 12px ; text-align: center&quot;&gt;Vizualizare&amp;nbsp; categorii de anunturi &quot;2&quot;&lt;br&gt;&lt;/span&gt;&lt;br&gt;&lt;span style=&quot;font-size: 12px ; text-align: center&quot;&gt;vizualizeaza&lt;/span&gt;&lt;b style=&quot;font-size: 12px ; text-align: center&quot;&gt;&amp;nbsp;&lt;/b&gt;&lt;span style=&quot;font-size: 12px ; text-align: center&quot;&gt;anunturi din categorie &quot;3&lt;i&gt; nume_categorie&lt;/i&gt;&quot;&lt;br&gt;&lt;br&gt;&lt;/span&gt;&lt;span style=&quot;font-size: 12px ; text-align: center&quot;&gt;vizualizare anunt &quot;4&lt;i&gt; nume_categorie&lt;/i&gt;&amp;nbsp;&lt;i&gt;index_anunt&lt;/i&gt;&quot;&amp;nbsp;&lt;/span&gt;&lt;br&gt;&lt;br&gt;&lt;span style=&quot;font-size: 12px ; text-align: center&quot;&gt;Adauga anunt &quot;5 &lt;i&gt;nume&lt;/i&gt;&quot;&lt;br&gt;&lt;/span&gt;*Trmimite imaginea cu &lt;i&gt;nume &lt;/i&gt;si fisierul txt cu &lt;i&gt;nume&lt;br&gt;&lt;/i&gt;(ambele binare)&lt;br&gt;**Server: va memora cu &lt;u&gt;append nume user&lt;/u&gt;&lt;br&gt;&lt;br&gt;&lt;span style=&quot;font-size: 12px ; text-align: center&quot;&gt;sterge anunt propriu &quot;6 nume_anunt&quot;&lt;br&gt;&lt;/span&gt;&lt;br&gt;Logout &quot;7&quot;&lt;br&gt;&lt;/font&gt;" style="shape=note;whiteSpace=wrap;html=1;backgroundOutline=1;darkOpacity=0.05;size=0;align=left;verticalAlign=top;" parent="1" vertex="1">
                    <mxGeometry x="585" y="-820" width="255" height="290" as="geometry"/>
                </mxCell>
                <mxCell id="YzWVm9P3VKeGNoiAu7Gn-51" value="&lt;font style=&quot;font-size: 11px&quot;&gt;Login &quot;1 nume parola&quot;&lt;br&gt;&lt;br&gt;&lt;span style=&quot;font-size: 12px ; text-align: center&quot;&gt;Creeaza categorie noua &quot;2 &lt;i&gt;nume&lt;/i&gt;&quot;&lt;br&gt;&lt;/span&gt;&lt;br&gt;&lt;span style=&quot;font-size: 12px ; text-align: center&quot;&gt;Vizualizare utilizatori conectati &quot;3&quot;&lt;br&gt;&lt;/span&gt;&lt;br&gt;&lt;span style=&quot;font-size: 12px ; text-align: center&quot;&gt;ban client &quot;4 nume_user&quot;&lt;br&gt;&lt;/span&gt;&lt;br&gt;&lt;span style=&quot;font-size: 12px ; text-align: center&quot;&gt;Adaugare utilizatori &quot;5 &lt;i&gt;nume_client parola_client&lt;/i&gt;&quot;&lt;br&gt;&lt;/span&gt;&lt;br&gt;&lt;span style=&quot;font-size: 12px ; text-align: center&quot;&gt;sterge anunt &quot;6 categorie nume_anunt&quot;&lt;br&gt;&lt;/span&gt;&lt;br&gt;Logout &quot;7&quot;&lt;br&gt;&lt;/font&gt;" style="shape=note;whiteSpace=wrap;html=1;backgroundOutline=1;darkOpacity=0.05;size=0;align=left;verticalAlign=top;" parent="1" vertex="1">
                    <mxGeometry x="585" y="-510" width="255" height="210" as="geometry"/>
                </mxCell>
            </root>
        </mxGraphModel>
    </diagram>
</mxfile>